<svg version="1.1" xmlns="http://www.w3.org/2000/svg" xmlns:xlink="http://www.w3.org/1999/xlink" width="604" height="821"><defs/><g><text fill="#eeeeee" stroke="none" font-family="Arial" font-size="24px" font-style="normal" font-weight="normal" text-decoration="none" x="0" y="0">UNREGISTERED</text><text fill="#eeeeee" stroke="none" font-family="Arial" font-size="24px" font-style="normal" font-weight="normal" text-decoration="none" x="0" y="30">UNREGISTERED</text><text fill="#eeeeee" stroke="none" font-family="Arial" font-size="24px" font-style="normal" font-weight="normal" text-decoration="none" x="0" y="60">UNREGISTERED</text><text fill="#eeeeee" stroke="none" font-family="Arial" font-size="24px" font-style="normal" font-weight="normal" text-decoration="none" x="0" y="90">UNREGISTERED</text><text fill="#eeeeee" stroke="none" font-family="Arial" font-size="24px" font-style="normal" font-weight="normal" text-decoration="none" x="0" y="120">UNREGISTERED</text><text fill="#eeeeee" stroke="none" font-family="Arial" font-size="24px" font-style="normal" font-weight="normal" text-decoration="none" x="0" y="150">UNREGISTERED</text><text fill="#eeeeee" stroke="none" font-family="Arial" font-size="24px" font-style="normal" font-weight="normal" text-decoration="none" x="0" y="180">UNREGISTERED</text><text fill="#eeeeee" stroke="none" font-family="Arial" font-size="24px" font-style="normal" font-weight="normal" text-decoration="none" x="0" y="210">UNREGISTERED</text><text fill="#eeeeee" stroke="none" font-family="Arial" font-size="24px" font-style="normal" font-weight="normal" text-decoration="none" x="0" y="240">UNREGISTERED</text><text fill="#eeeeee" stroke="none" font-family="Arial" font-size="24px" font-style="normal" font-weight="normal" text-decoration="none" x="0" y="270">UNREGISTERED</text><text fill="#eeeeee" stroke="none" font-family="Arial" font-size="24px" font-style="normal" font-weight="normal" text-decoration="none" x="0" y="300">UNREGISTERED</text><text fill="#eeeeee" stroke="none" font-family="Arial" font-size="24px" font-style="normal" font-weight="normal" text-decoration="none" x="0" y="330">UNREGISTERED</text><text fill="#eeeeee" stroke="none" font-family="Arial" font-size="24px" font-style="normal" font-weight="normal" text-decoration="none" x="0" y="360">UNREGISTERED</text><text fill="#eeeeee" stroke="none" font-family="Arial" font-size="24px" font-style="normal" font-weight="normal" text-decoration="none" x="0" y="390">UNREGISTERED</text><text fill="#eeeeee" stroke="none" font-family="Arial" font-size="24px" font-style="normal" font-weight="normal" text-decoration="none" x="0" y="420">UNREGISTERED</text><text fill="#eeeeee" stroke="none" font-family="Arial" font-size="24px" font-style="normal" font-weight="normal" text-decoration="none" x="0" y="450">UNREGISTERED</text><text fill="#eeeeee" stroke="none" font-family="Arial" font-size="24px" font-style="normal" font-weight="normal" text-decoration="none" x="0" y="480">UNREGISTERED</text><text fill="#eeeeee" stroke="none" font-family="Arial" font-size="24px" font-style="normal" font-weight="normal" text-decoration="none" x="0" y="510">UNREGISTERED</text><text fill="#eeeeee" stroke="none" font-family="Arial" font-size="24px" font-style="normal" font-weight="normal" text-decoration="none" x="0" y="540">UNREGISTERED</text><text fill="#eeeeee" stroke="none" font-family="Arial" font-size="24px" font-style="normal" font-weight="normal" text-decoration="none" x="0" y="570">UNREGISTERED</text><text fill="#eeeeee" stroke="none" font-family="Arial" font-size="24px" font-style="normal" font-weight="normal" text-decoration="none" x="0" y="600">UNREGISTERED</text><text fill="#eeeeee" stroke="none" font-family="Arial" font-size="24px" font-style="normal" font-weight="normal" text-decoration="none" x="0" y="630">UNREGISTERED</text><text fill="#eeeeee" stroke="none" font-family="Arial" font-size="24px" font-style="normal" font-weight="normal" text-decoration="none" x="0" y="660">UNREGISTERED</text><text fill="#eeeeee" stroke="none" font-family="Arial" font-size="24px" font-style="normal" font-weight="normal" text-decoration="none" x="0" y="690">UNREGISTERED</text><text fill="#eeeeee" stroke="none" font-family="Arial" font-size="24px" font-style="normal" font-weight="normal" text-decoration="none" x="0" y="720">UNREGISTERED</text><text fill="#eeeeee" stroke="none" font-family="Arial" font-size="24px" font-style="normal" font-weight="normal" text-decoration="none" x="0" y="750">UNREGISTERED</text><text fill="#eeeeee" stroke="none" font-family="Arial" font-size="24px" font-style="normal" font-weight="normal" text-decoration="none" x="0" y="780">UNREGISTERED</text><text fill="#eeeeee" stroke="none" font-family="Arial" font-size="24px" font-style="normal" font-weight="normal" text-decoration="none" x="0" y="810">UNREGISTERED</text><text fill="#eeeeee" stroke="none" font-family="Arial" font-size="24px" font-style="normal" font-weight="normal" text-decoration="none" x="200" y="0">UNREGISTERED</text><text fill="#eeeeee" stroke="none" font-family="Arial" font-size="24px" font-style="normal" font-weight="normal" text-decoration="none" x="200" y="30">UNREGISTERED</text><text fill="#eeeeee" stroke="none" font-family="Arial" font-size="24px" font-style="normal" font-weight="normal" text-decoration="none" x="200" y="60">UNREGISTERED</text><text fill="#eeeeee" stroke="none" font-family="Arial" font-size="24px" font-style="normal" font-weight="normal" text-decoration="none" x="200" y="90">UNREGISTERED</text><text fill="#eeeeee" stroke="none" font-family="Arial" font-size="24px" font-style="normal" font-weight="normal" text-decoration="none" x="200" y="120">UNREGISTERED</text><text fill="#eeeeee" stroke="none" font-family="Arial" font-size="24px" font-style="normal" font-weight="normal" text-decoration="none" x="200" y="150">UNREGISTERED</text><text fill="#eeeeee" stroke="none" font-family="Arial" font-size="24px" font-style="normal" font-weight="normal" text-decoration="none" x="200" y="180">UNREGISTERED</text><text fill="#eeeeee" stroke="none" font-family="Arial" font-size="24px" font-style="normal" font-weight="normal" text-decoration="none" x="200" y="210">UNREGISTERED</text><text fill="#eeeeee" stroke="none" font-family="Arial" font-size="24px" font-style="normal" font-weight="normal" text-decoration="none" x="200" y="240">UNREGISTERED</text><text fill="#eeeeee" stroke="none" font-family="Arial" font-size="24px" font-style="normal" font-weight="normal" text-decoration="none" x="200" y="270">UNREGISTERED</text><text fill="#eeeeee" stroke="none" font-family="Arial" font-size="24px" font-style="normal" font-weight="normal" text-decoration="none" x="200" y="300">UNREGISTERED</text><text fill="#eeeeee" stroke="none" font-family="Arial" font-size="24px" font-style="normal" font-weight="normal" text-decoration="none" x="200" y="330">UNREGISTERED</text><text fill="#eeeeee" stroke="none" font-family="Arial" font-size="24px" font-style="normal" font-weight="normal" text-decoration="none" x="200" y="360">UNREGISTERED</text><text fill="#eeeeee" stroke="none" font-family="Arial" font-size="24px" font-style="normal" font-weight="normal" text-decoration="none" x="200" y="390">UNREGISTERED</text><text fill="#eeeeee" stroke="none" font-family="Arial" font-size="24px" font-style="normal" font-weight="normal" text-decoration="none" x="200" y="420">UNREGISTERED</text><text fill="#eeeeee" stroke="none" font-family="Arial" font-size="24px" font-style="normal" font-weight="normal" text-decoration="none" x="200" y="450">UNREGISTERED</text><text fill="#eeeeee" stroke="none" font-family="Arial" font-size="24px" font-style="normal" font-weight="normal" text-decoration="none" x="200" y="480">UNREGISTERED</text><text fill="#eeeeee" stroke="none" font-family="Arial" font-size="24px" font-style="normal" font-weight="normal" text-decoration="none" x="200" y="510">UNREGISTERED</text><text fill="#eeeeee" stroke="none" font-family="Arial" font-size="24px" font-style="normal" font-weight="normal" text-decoration="none" x="200" y="540">UNREGISTERED</text><text fill="#eeeeee" stroke="none" font-family="Arial" font-size="24px" font-style="normal" font-weight="normal" text-decoration="none" x="200" y="570">UNREGISTERED</text><text fill="#eeeeee" stroke="none" font-family="Arial" font-size="24px" font-style="normal" font-weight="normal" text-decoration="none" x="200" y="600">UNREGISTERED</text><text fill="#eeeeee" stroke="none" font-family="Arial" font-size="24px" font-style="normal" font-weight="normal" text-decoration="none" x="200" y="630">UNREGISTERED</text><text fill="#eeeeee" stroke="none" font-family="Arial" font-size="24px" font-style="normal" font-weight="normal" text-decoration="none" x="200" y="660">UNREGISTERED</text><text fill="#eeeeee" stroke="none" font-family="Arial" font-size="24px" font-style="normal" font-weight="normal" text-decoration="none" x="200" y="690">UNREGISTERED</text><text fill="#eeeeee" stroke="none" font-family="Arial" font-size="24px" font-style="normal" font-weight="normal" text-decoration="none" x="200" y="720">UNREGISTERED</text><text fill="#eeeeee" stroke="none" font-family="Arial" font-size="24px" font-style="normal" font-weight="normal" text-decoration="none" x="200" y="750">UNREGISTERED</text><text fill="#eeeeee" stroke="none" font-family="Arial" font-size="24px" font-style="normal" font-weight="normal" text-decoration="none" x="200" y="780">UNREGISTERED</text><text fill="#eeeeee" stroke="none" font-family="Arial" font-size="24px" font-style="normal" font-weight="normal" text-decoration="none" x="200" y="810">UNREGISTERED</text><text fill="#eeeeee" stroke="none" font-family="Arial" font-size="24px" font-style="normal" font-weight="normal" text-decoration="none" x="400" y="0">UNREGISTERED</text><text fill="#eeeeee" stroke="none" font-family="Arial" font-size="24px" font-style="normal" font-weight="normal" text-decoration="none" x="400" y="30">UNREGISTERED</text><text fill="#eeeeee" stroke="none" font-family="Arial" font-size="24px" font-style="normal" font-weight="normal" text-decoration="none" x="400" y="60">UNREGISTERED</text><text fill="#eeeeee" stroke="none" font-family="Arial" font-size="24px" font-style="normal" font-weight="normal" text-decoration="none" x="400" y="90">UNREGISTERED</text><text fill="#eeeeee" stroke="none" font-family="Arial" font-size="24px" font-style="normal" font-weight="normal" text-decoration="none" x="400" y="120">UNREGISTERED</text><text fill="#eeeeee" stroke="none" font-family="Arial" font-size="24px" font-style="normal" font-weight="normal" text-decoration="none" x="400" y="150">UNREGISTERED</text><text fill="#eeeeee" stroke="none" font-family="Arial" font-size="24px" font-style="normal" font-weight="normal" text-decoration="none" x="400" y="180">UNREGISTERED</text><text fill="#eeeeee" stroke="none" font-family="Arial" font-size="24px" font-style="normal" font-weight="normal" text-decoration="none" x="400" y="210">UNREGISTERED</text><text fill="#eeeeee" stroke="none" font-family="Arial" font-size="24px" font-style="normal" font-weight="normal" text-decoration="none" x="400" y="240">UNREGISTERED</text><text fill="#eeeeee" stroke="none" font-family="Arial" font-size="24px" font-style="normal" font-weight="normal" text-decoration="none" x="400" y="270">UNREGISTERED</text><text fill="#eeeeee" stroke="none" font-family="Arial" font-size="24px" font-style="normal" font-weight="normal" text-decoration="none" x="400" y="300">UNREGISTERED</text><text fill="#eeeeee" stroke="none" font-family="Arial" font-size="24px" font-style="normal" font-weight="normal" text-decoration="none" x="400" y="330">UNREGISTERED</text><text fill="#eeeeee" stroke="none" font-family="Arial" font-size="24px" font-style="normal" font-weight="normal" text-decoration="none" x="400" y="360">UNREGISTERED</text><text fill="#eeeeee" stroke="none" font-family="Arial" font-size="24px" font-style="normal" font-weight="normal" text-decoration="none" x="400" y="390">UNREGISTERED</text><text fill="#eeeeee" stroke="none" font-family="Arial" font-size="24px" font-style="normal" font-weight="normal" text-decoration="none" x="400" y="420">UNREGISTERED</text><text fill="#eeeeee" stroke="none" font-family="Arial" font-size="24px" font-style="normal" font-weight="normal" text-decoration="none" x="400" y="450">UNREGISTERED</text><text fill="#eeeeee" stroke="none" font-family="Arial" font-size="24px" font-style="normal" font-weight="normal" text-decoration="none" x="400" y="480">UNREGISTERED</text><text fill="#eeeeee" stroke="none" font-family="Arial" font-size="24px" font-style="normal" font-weight="normal" text-decoration="none" x="400" y="510">UNREGISTERED</text><text fill="#eeeeee" stroke="none" font-family="Arial" font-size="24px" font-style="normal" font-weight="normal" text-decoration="none" x="400" y="540">UNREGISTERED</text><text fill="#eeeeee" stroke="none" font-family="Arial" font-size="24px" font-style="normal" font-weight="normal" text-decoration="none" x="400" y="570">UNREGISTERED</text><text fill="#eeeeee" stroke="none" font-family="Arial" font-size="24px" font-style="normal" font-weight="normal" text-decoration="none" x="400" y="600">UNREGISTERED</text><text fill="#eeeeee" stroke="none" font-family="Arial" font-size="24px" font-style="normal" font-weight="normal" text-decoration="none" x="400" y="630">UNREGISTERED</text><text fill="#eeeeee" stroke="none" font-family="Arial" font-size="24px" font-style="normal" font-weight="normal" text-decoration="none" x="400" y="660">UNREGISTERED</text><text fill="#eeeeee" stroke="none" font-family="Arial" font-size="24px" font-style="normal" font-weight="normal" text-decoration="none" x="400" y="690">UNREGISTERED</text><text fill="#eeeeee" stroke="none" font-family="Arial" font-size="24px" font-style="normal" font-weight="normal" text-decoration="none" x="400" y="720">UNREGISTERED</text><text fill="#eeeeee" stroke="none" font-family="Arial" font-size="24px" font-style="normal" font-weight="normal" text-decoration="none" x="400" y="750">UNREGISTERED</text><text fill="#eeeeee" stroke="none" font-family="Arial" font-size="24px" font-style="normal" font-weight="normal" text-decoration="none" x="400" y="780">UNREGISTERED</text><text fill="#eeeeee" stroke="none" font-family="Arial" font-size="24px" font-style="normal" font-weight="normal" text-decoration="none" x="400" y="810">UNREGISTERED</text><text fill="#eeeeee" stroke="none" font-family="Arial" font-size="24px" font-style="normal" font-weight="normal" text-decoration="none" x="600" y="0">UNREGISTERED</text><text fill="#eeeeee" stroke="none" font-family="Arial" font-size="24px" font-style="normal" font-weight="normal" text-decoration="none" x="600" y="30">UNREGISTERED</text><text fill="#eeeeee" stroke="none" font-family="Arial" font-size="24px" font-style="normal" font-weight="normal" text-decoration="none" x="600" y="60">UNREGISTERED</text><text fill="#eeeeee" stroke="none" font-family="Arial" font-size="24px" font-style="normal" font-weight="normal" text-decoration="none" x="600" y="90">UNREGISTERED</text><text fill="#eeeeee" stroke="none" font-family="Arial" font-size="24px" font-style="normal" font-weight="normal" text-decoration="none" x="600" y="120">UNREGISTERED</text><text fill="#eeeeee" stroke="none" font-family="Arial" font-size="24px" font-style="normal" font-weight="normal" text-decoration="none" x="600" y="150">UNREGISTERED</text><text fill="#eeeeee" stroke="none" font-family="Arial" font-size="24px" font-style="normal" font-weight="normal" text-decoration="none" x="600" y="180">UNREGISTERED</text><text fill="#eeeeee" stroke="none" font-family="Arial" font-size="24px" font-style="normal" font-weight="normal" text-decoration="none" x="600" y="210">UNREGISTERED</text><text fill="#eeeeee" stroke="none" font-family="Arial" font-size="24px" font-style="normal" font-weight="normal" text-decoration="none" x="600" y="240">UNREGISTERED</text><text fill="#eeeeee" stroke="none" font-family="Arial" font-size="24px" font-style="normal" font-weight="normal" text-decoration="none" x="600" y="270">UNREGISTERED</text><text fill="#eeeeee" stroke="none" font-family="Arial" font-size="24px" font-style="normal" font-weight="normal" text-decoration="none" x="600" y="300">UNREGISTERED</text><text fill="#eeeeee" stroke="none" font-family="Arial" font-size="24px" font-style="normal" font-weight="normal" text-decoration="none" x="600" y="330">UNREGISTERED</text><text fill="#eeeeee" stroke="none" font-family="Arial" font-size="24px" font-style="normal" font-weight="normal" text-decoration="none" x="600" y="360">UNREGISTERED</text><text fill="#eeeeee" stroke="none" font-family="Arial" font-size="24px" font-style="normal" font-weight="normal" text-decoration="none" x="600" y="390">UNREGISTERED</text><text fill="#eeeeee" stroke="none" font-family="Arial" font-size="24px" font-style="normal" font-weight="normal" text-decoration="none" x="600" y="420">UNREGISTERED</text><text fill="#eeeeee" stroke="none" font-family="Arial" font-size="24px" font-style="normal" font-weight="normal" text-decoration="none" x="600" y="450">UNREGISTERED</text><text fill="#eeeeee" stroke="none" font-family="Arial" font-size="24px" font-style="normal" font-weight="normal" text-decoration="none" x="600" y="480">UNREGISTERED</text><text fill="#eeeeee" stroke="none" font-family="Arial" font-size="24px" font-style="normal" font-weight="normal" text-decoration="none" x="600" y="510">UNREGISTERED</text><text fill="#eeeeee" stroke="none" font-family="Arial" font-size="24px" font-style="normal" font-weight="normal" text-decoration="none" x="600" y="540">UNREGISTERED</text><text fill="#eeeeee" stroke="none" font-family="Arial" font-size="24px" font-style="normal" font-weight="normal" text-decoration="none" x="600" y="570">UNREGISTERED</text><text fill="#eeeeee" stroke="none" font-family="Arial" font-size="24px" font-style="normal" font-weight="normal" text-decoration="none" x="600" y="600">UNREGISTERED</text><text fill="#eeeeee" stroke="none" font-family="Arial" font-size="24px" font-style="normal" font-weight="normal" text-decoration="none" x="600" y="630">UNREGISTERED</text><text fill="#eeeeee" stroke="none" font-family="Arial" font-size="24px" font-style="normal" font-weight="normal" text-decoration="none" x="600" y="660">UNREGISTERED</text><text fill="#eeeeee" stroke="none" font-family="Arial" font-size="24px" font-style="normal" font-weight="normal" text-decoration="none" x="600" y="690">UNREGISTERED</text><text fill="#eeeeee" stroke="none" font-family="Arial" font-size="24px" font-style="normal" font-weight="normal" text-decoration="none" x="600" y="720">UNREGISTERED</text><text fill="#eeeeee" stroke="none" font-family="Arial" font-size="24px" font-style="normal" font-weight="normal" text-decoration="none" x="600" y="750">UNREGISTERED</text><text fill="#eeeeee" stroke="none" font-family="Arial" font-size="24px" font-style="normal" font-weight="normal" text-decoration="none" x="600" y="780">UNREGISTERED</text><text fill="#eeeeee" stroke="none" font-family="Arial" font-size="24px" font-style="normal" font-weight="normal" text-decoration="none" x="600" y="810">UNREGISTERED</text><g transform="translate(-62,-54) scale(1,1)"><rect fill="#ffffff" stroke="none" x="416" y="64" width="240" height="21"/></g><g transform="translate(-62,-54) scale(1,1)"><path fill="none" stroke="#000000" d="M 416 64 L 656 64 L 656 85 L 416 85 L 416 64 Z Z" stroke-miterlimit="10" stroke-width="2"/></g><g transform="translate(-62,-54) scale(1,1)"><path fill="none" stroke="#000000" d="M 416 848 L 416 64 L 656 64 L 656 848" stroke-miterlimit="10" stroke-width="2"/></g><g transform="translate(-62,-54) scale(1,1)"><g><path fill="none" stroke="none"/><text fill="#000000" stroke="none" font-family="Arial" font-size="13px" font-style="normal" font-weight="normal" text-decoration="none" x="496.622314453125" y="81">Merchandiser</text></g></g><g transform="translate(-62,-54) scale(1,1)"><rect fill="#ffffff" stroke="none" x="72" y="64" width="344" height="21"/></g><g transform="translate(-62,-54) scale(1,1)"><path fill="none" stroke="#000000" d="M 72 64 L 416 64 L 416 85 L 72 85 L 72 64 Z Z" stroke-miterlimit="10" stroke-width="2"/></g><g transform="translate(-62,-54) scale(1,1)"><path fill="none" stroke="#000000" d="M 72 363 L 72 64 L 416 64 L 416 363" stroke-miterlimit="10" stroke-width="2"/></g><g transform="translate(-62,-54) scale(1,1)"><g><path fill="none" stroke="none"/><text fill="#000000" stroke="none" font-family="Arial" font-size="13px" font-style="normal" font-weight="normal" text-decoration="none" x="205.339599609375" y="81">Admin Sehati</text></g></g><g transform="translate(-62,-54) scale(1,1)"><path fill="none" stroke="#000000" d="M 264 265 L 260 335" stroke-miterlimit="10"/></g><g transform="translate(-62,-54) scale(1,1)"><path fill="none" stroke="#000000" d="M 256.37711661258334 324.6137246348279 L 260 335 L 264.78244033129357 325.09402884732566" stroke-miterlimit="10"/></g><g transform="translate(-62,-54) scale(1,1)"><path fill="#C0C0C0" stroke="none" d="M 313 423 L 393.75537109375 423 Q 403.75537109375 423 403.75537109375 433 L 403.75537109375 453 Q 403.75537109375 463 393.75537109375 463 L 313 463 Q 303 463 303 453 L 303 433 Q 303 423 313 423 Z" opacity="0.2"/></g><g transform="translate(-62,-54) scale(1,1)"><path fill="#ffffff" stroke="none" d="M 306 416 L 386.75537109375 416 Q 396.75537109375 416 396.75537109375 426 L 396.75537109375 446 Q 396.75537109375 456 386.75537109375 456 L 306 456 Q 296 456 296 446 L 296 426 Q 296 416 306 416 Z"/></g><g transform="translate(-62,-54) scale(1,1)"><path fill="none" stroke="#000000" d="M 306 416 L 386.75537109375 416 Q 396.75537109375 416 396.75537109375 426 L 396.75537109375 446 Q 396.75537109375 456 386.75537109375 456 L 306 456 Q 296 456 296 446 L 296 426 Q 296 416 306 416 Z" stroke-miterlimit="10"/></g><g transform="translate(-62,-54) scale(1,1)"><g><path fill="none" stroke="none"/><text fill="#000000" stroke="none" font-family="Arial" font-size="13px" font-style="normal" font-weight="bold" text-decoration="none" x="301.94091796875" y="435.5">Create new PO</text></g></g><g transform="translate(-62,-54) scale(1,1)"><path fill="none" stroke="#000000" d="M 270 344 L 336 344 M 336 344 A 8 8 0 0 1 344 352 L 344 416" stroke-miterlimit="10"/></g><g transform="translate(-62,-54) scale(1,1)"><path fill="none" stroke="#000000" d="M 339.790482243984 405.83732514237585 L 344 416 L 348.209517756016 405.83732514237585" stroke-miterlimit="10"/></g><g transform="translate(-62,-54) scale(1,1)"><g><path fill="none" stroke="none"/><text fill="#000000" stroke="none" font-family="Arial" font-size="13px" font-style="normal" font-weight="normal" text-decoration="none" x="322.5" y="349.5">min reached</text></g></g><g transform="translate(-62,-54) scale(1,1)"><path fill="none" stroke="#000000" d="M 250 132 L 262 223" stroke-miterlimit="10"/></g><g transform="translate(-62,-54) scale(1,1)"><path fill="none" stroke="#000000" d="M 256.49798098497183 213.47488652255163 L 262 223 L 264.8447573757314 212.37421271278114" stroke-miterlimit="10"/></g><g transform="translate(-62,-54) scale(1,1)"><path fill="#C0C0C0" stroke="none" d="M 329 655 L 396.00634765625 655 Q 406.00634765625 655 406.00634765625 665 L 406.00634765625 685 Q 406.00634765625 695 396.00634765625 695 L 329 695 Q 319 695 319 685 L 319 665 Q 319 655 329 655 Z" opacity="0.2"/></g><g transform="translate(-62,-54) scale(1,1)"><path fill="#ffffff" stroke="none" d="M 322 648 L 389.00634765625 648 Q 399.00634765625 648 399.00634765625 658 L 399.00634765625 678 Q 399.00634765625 688 389.00634765625 688 L 322 688 Q 312 688 312 678 L 312 658 Q 312 648 322 648 Z"/></g><g transform="translate(-62,-54) scale(1,1)"><path fill="none" stroke="#000000" d="M 322 648 L 389.00634765625 648 Q 399.00634765625 648 399.00634765625 658 L 399.00634765625 678 Q 399.00634765625 688 389.00634765625 688 L 322 688 Q 312 688 312 678 L 312 658 Q 312 648 322 648 Z" stroke-miterlimit="10"/></g><g transform="translate(-62,-54) scale(1,1)"><g><path fill="none" stroke="none"/><text fill="#000000" stroke="none" font-family="Arial" font-size="13px" font-style="normal" font-weight="bold" text-decoration="none" x="318.293212890625" y="667.5">Add PO Item</text></g></g><g transform="translate(-62,-54) scale(1,1)"><path fill="#C0C0C0" stroke="none" d="M 321 543 L 390.9326171875 543 Q 400.9326171875 543 400.9326171875 553 L 400.9326171875 573 Q 400.9326171875 583 390.9326171875 583 L 321 583 Q 311 583 311 573 L 311 553 Q 311 543 321 543 Z" opacity="0.2"/></g><g transform="translate(-62,-54) scale(1,1)"><path fill="#ffffff" stroke="none" d="M 314 536 L 383.9326171875 536 Q 393.9326171875 536 393.9326171875 546 L 393.9326171875 566 Q 393.9326171875 576 383.9326171875 576 L 314 576 Q 304 576 304 566 L 304 546 Q 304 536 314 536 Z"/></g><g transform="translate(-62,-54) scale(1,1)"><path fill="none" stroke="#000000" d="M 314 536 L 383.9326171875 536 Q 393.9326171875 536 393.9326171875 546 L 393.9326171875 566 Q 393.9326171875 576 383.9326171875 576 L 314 576 Q 304 576 304 566 L 304 546 Q 304 536 314 536 Z" stroke-miterlimit="10"/></g><g transform="translate(-62,-54) scale(1,1)"><g><path fill="none" stroke="none"/><text fill="#000000" stroke="none" font-family="Arial" font-size="13px" font-style="normal" font-weight="bold" text-decoration="none" x="310.667724609375" y="555.5">Save as draft</text></g></g><g transform="translate(-62,-54) scale(1,1)"><path fill="#C0C0C0" stroke="none" d="M 329 767 L 381.578125 767 Q 391.578125 767 391.578125 777 L 391.578125 797 Q 391.578125 807 381.578125 807 L 329 807 Q 319 807 319 797 L 319 777 Q 319 767 329 767 Z" opacity="0.2"/></g><g transform="translate(-62,-54) scale(1,1)"><path fill="#ffffff" stroke="none" d="M 322 760 L 374.578125 760 Q 384.578125 760 384.578125 770 L 384.578125 790 Q 384.578125 800 374.578125 800 L 322 800 Q 312 800 312 790 L 312 770 Q 312 760 322 760 Z"/></g><g transform="translate(-62,-54) scale(1,1)"><path fill="none" stroke="#000000" d="M 322 760 L 374.578125 760 Q 384.578125 760 384.578125 770 L 384.578125 790 Q 384.578125 800 374.578125 800 L 322 800 Q 312 800 312 790 L 312 770 Q 312 760 322 760 Z" stroke-miterlimit="10"/></g><g transform="translate(-62,-54) scale(1,1)"><g><path fill="none" stroke="none"/><text fill="#000000" stroke="none" font-family="Arial" font-size="13px" font-style="normal" font-weight="bold" text-decoration="none" x="317.94091796875" y="779.5">Issued PO</text></g></g><g transform="translate(-62,-54) scale(1,1)"><path fill="#C0C0C0" stroke="none" d="M 537 711 L 601.12451171875 711 Q 611.12451171875 711 611.12451171875 721 L 611.12451171875 741 Q 611.12451171875 751 601.12451171875 751 L 537 751 Q 527 751 527 741 L 527 721 Q 527 711 537 711 Z" opacity="0.2"/></g><g transform="translate(-62,-54) scale(1,1)"><path fill="#ffffff" stroke="none" d="M 530 704 L 594.12451171875 704 Q 604.12451171875 704 604.12451171875 714 L 604.12451171875 734 Q 604.12451171875 744 594.12451171875 744 L 530 744 Q 520 744 520 734 L 520 714 Q 520 704 530 704 Z"/></g><g transform="translate(-62,-54) scale(1,1)"><path fill="none" stroke="#000000" d="M 530 704 L 594.12451171875 704 Q 604.12451171875 704 604.12451171875 714 L 604.12451171875 734 Q 604.12451171875 744 594.12451171875 744 L 530 744 Q 520 744 520 734 L 520 714 Q 520 704 530 704 Z" stroke-miterlimit="10"/></g><g transform="translate(-62,-54) scale(1,1)"><g><path fill="none" stroke="none"/><text fill="#000000" stroke="none" font-family="Arial" font-size="13px" font-style="normal" font-weight="bold" text-decoration="none" x="526.655029296875" y="723.5">Approve PO</text></g></g><g transform="translate(-62,-54) scale(1,1)"><path fill="none" stroke="#000000" d="M 346 457 L 348 535" stroke-miterlimit="10"/></g><g transform="translate(-62,-54) scale(1,1)"><path fill="none" stroke="#000000" d="M 343.5313695737947 524.9485651713802 L 348 535 L 351.9476388509854 524.732763395042" stroke-miterlimit="10"/></g><g transform="translate(-62,-54) scale(1,1)"><path fill="none" stroke="#000000" d="M 349 577 L 354 647" stroke-miterlimit="10"/></g><g transform="translate(-62,-54) scale(1,1)"><path fill="none" stroke="#000000" d="M 349.0771192885779 637.1630672716996 L 354 647 L 357.4747595042381 636.5632358277238" stroke-miterlimit="10"/></g><g transform="translate(-62,-54) scale(1,1)"><path fill="none" stroke="#000000" d="M 354 689 L 349 759" stroke-miterlimit="10"/></g><g transform="translate(-62,-54) scale(1,1)"><path fill="none" stroke="#000000" d="M 345.5252404957619 748.5632358277238 L 349 759 L 353.9228807114221 749.1630672716996" stroke-miterlimit="10"/></g><g transform="translate(-62,-54) scale(1,1)"><path fill="none" stroke="#000000" d="M 386 779 L 487 777" stroke-miterlimit="10"/></g><g transform="translate(-62,-54) scale(1,1)"><path fill="none" stroke="#000000" d="M 476.922657491789 781.4098943266481 L 487 777 L 476.7559765934156 772.9925089587935" stroke-miterlimit="10"/></g><g transform="translate(-62,-54) scale(1,1)"><path fill="#C0C0C0" stroke="none" d="M 247 128.5 C 247 123.2532944 251.2532944 119 256.5 119 C 261.7467056 119 266 123.2532944 266 128.5 C 266 133.7467056 261.7467056 138 256.5 138 C 251.2532944 138 247 133.7467056 247 128.5 Z" opacity="0.2"/></g><g transform="translate(-62,-54) scale(1,1)"><path fill="#000000" stroke="none" d="M 240 121.5 C 240 116.2532944 244.2532944 112 249.5 112 C 254.7467056 112 259 116.2532944 259 121.5 C 259 126.7467056 254.7467056 131 249.5 131 C 244.2532944 131 240 126.7467056 240 121.5 Z"/></g><g transform="translate(-62,-54) scale(1,1)"><path fill="#C0C0C0" stroke="none" d="M 185 231 L 359.65625 231 Q 369.65625 231 369.65625 241 L 369.65625 261 Q 369.65625 271 359.65625 271 L 185 271 Q 175 271 175 261 L 175 241 Q 175 231 185 231 Z" opacity="0.2"/></g><g transform="translate(-62,-54) scale(1,1)"><path fill="#ffffff" stroke="none" d="M 178 224 L 352.65625 224 Q 362.65625 224 362.65625 234 L 362.65625 254 Q 362.65625 264 352.65625 264 L 178 264 Q 168 264 168 254 L 168 234 Q 168 224 178 224 Z"/></g><g transform="translate(-62,-54) scale(1,1)"><path fill="none" stroke="#000000" d="M 178 224 L 352.65625 224 Q 362.65625 224 362.65625 234 L 362.65625 254 Q 362.65625 264 352.65625 264 L 178 264 Q 168 264 168 254 L 168 234 Q 168 224 178 224 Z" stroke-miterlimit="10"/></g><g transform="translate(-62,-54) scale(1,1)"><g><path fill="none" stroke="none"/><text fill="#000000" stroke="none" font-family="Arial" font-size="13px" font-style="normal" font-weight="bold" text-decoration="none" x="179.71728515625" y="243.5">Check min-max product stock</text></g></g><g transform="translate(-62,-54) scale(1,1)"><path fill="#C0C0C0" stroke="none" d="M 255 352.5 L 266.5 343 L 277 352.5 L 266.5 361 L 255 352.5" opacity="0.2"/></g><g transform="translate(-62,-54) scale(1,1)"><path fill="#ffffff" stroke="none" d="M 248 345 L 259 336 L 270 345 L 259 354 L 248 345"/></g><g transform="translate(-62,-54) scale(1,1)"><path fill="none" stroke="#000000" d="M 248 345 L 259 336 L 270 345 L 259 354 L 248 345 L 248 345" stroke-miterlimit="10"/></g><g transform="translate(-62,-54) scale(1,1)"><path fill="#C0C0C0" stroke="none" d="M 295 859.5 C 295 852.59644 300.59644 847 307.5 847 C 314.40356 847 320 852.59644 320 859.5 C 320 866.40356 314.40356 872 307.5 872 C 300.59644 872 295 866.40356 295 859.5 Z" opacity="0.2"/></g><g transform="translate(-62,-54) scale(1,1)"><path fill="none" stroke="#000000" d="M 288 852.5 C 288 845.59644 293.59644 840 300.5 840 C 307.40356 840 313 845.59644 313 852.5 C 313 859.40356 307.40356 865 300.5 865 C 293.59644 865 288 859.40356 288 852.5 Z" stroke-miterlimit="10"/></g><g transform="translate(-62,-54) scale(1,1)"><path fill="#000000" stroke="none" d="M 293 852.5 C 293 848.357864 296.357864 845 300.5 845 C 304.642136 845 308 848.357864 308 852.5 C 308 856.642136 304.642136 860 300.5 860 C 296.357864 860 293 856.642136 293 852.5 Z"/></g><g transform="translate(-62,-54) scale(1,1)"><path fill="none" stroke="#000000" d="M 248 344 L 120 344 M 120 344 A 8 8 0 0 0 112 352 L 112 844 M 112 844 A 8 8 0 0 0 120 852 L 288 852" stroke-miterlimit="10"/></g><g transform="translate(-62,-54) scale(1,1)"><path fill="none" stroke="#000000" d="M 277.83732514237585 856.209517756016 L 288 852 L 277.83732514237585 847.790482243984" stroke-miterlimit="10"/></g><g transform="translate(-62,-54) scale(1,1)"><path fill="#C0C0C0" stroke="none" d="M 495 784.5 L 506.5 775 L 517 784.5 L 506.5 793 L 495 784.5" opacity="0.2"/></g><g transform="translate(-62,-54) scale(1,1)"><path fill="#ffffff" stroke="none" d="M 488 777 L 499 768 L 510 777 L 499 786 L 488 777"/></g><g transform="translate(-62,-54) scale(1,1)"><path fill="none" stroke="#000000" d="M 488 777 L 499 768 L 510 777 L 499 786 L 488 777 L 488 777" stroke-miterlimit="10"/></g></g></svg>